Coordinates
version=1
nRows=12
nColumns=42
inDegrees=yes

Units are S.I. units (second, meters, Newtons, ...)
If the header above contains a line with 'inDegrees', this indicates whether rotational values are in degrees (yes) or radians (no).

endheader
time	pelvis_tilt	pelvis_list	pelvis_rotation	pelvis_tx	pelvis_ty	pelvis_tz	hip_flexion_r	hip_adduction_r	hip_rotation_r	knee_angle_r	knee_adduction_r	knee_angle_r_beta	ankle_angle_r	subtalar_angle_r	mtp_angle_r	hip_flexion_l	hip_adduction_l	hip_rotation_l	knee_angle_l	knee_adduction_l	knee_angle_l_beta	ankle_angle_l	subtalar_angle_l	mtp_angle_l	lumbar_extension	lumbar_bending	lumbar_rotation	arm_flex_r	arm_add_r	arm_rot_r	elbow_flex_r	pro_sup_r	wrist_flex_r	wrist_dev_r	arm_flex_l	arm_add_l	arm_rot_l	elbow_flex_l	pro_sup_l	wrist_flex_l	wrist_dev_l
      0.50000000	      3.42139826	    -10.17107980	     -3.84166820	     -1.67241906	      0.83221926	      0.35276541	      6.36251454	      7.91560687	    -27.28495148	     21.29878181	     -2.90871584	      0.37173387	     16.21583472	     25.01570760	     -9.58115845	     -2.68803629	    -17.33953060	    -19.82246146	     43.38752770	     -8.83848802	      0.75725521	     19.77624265	     28.44347499	     -9.58115845	    -25.53941405	     11.09267033	      4.40510435	     -7.80622660	     -1.99768795	    -10.89692098	    105.53883621	     90.00000001	      0.00000000	      0.00000000	     -2.84445905	     -9.63929881	    -27.03380769	     45.49005110	     90.00000001	      0.00000000	      0.00000000
      0.51000000	      3.41090026	     -9.95535076	     -3.89223766	     -1.67020578	      0.83240160	      0.35397380	      6.14897344	      7.71880501	    -27.20525778	     21.28168035	     -2.74180283	      0.37143539	     16.38913233	     25.12775810	     -9.54412154	     -1.66662321	    -17.29446094	    -19.11370173	     45.26284593	     -9.07767800	      0.78998569	     18.38086744	     28.29505127	     -9.54412154	    -25.79221354	     10.90363887	      4.35451726	     -8.06180393	     -2.12100581	    -11.12892717	    105.53148819	     90.00000001	      0.00000000	      0.00000000	     -2.72244229	     -9.58271520	    -26.97514177	     45.70362511	     90.00000001	      0.00000000	      0.00000000
      0.52000000	      2.98243511	     -9.94210685	     -3.89459370	     -1.66842126	      0.83194031	      0.35531955	      6.53269479	      7.90873497	    -27.35252529	     21.29050497	     -2.98353769	      0.37158941	     16.61247168	     25.24164014	     -9.46293894	      0.00829824	    -17.66616430	    -17.78598371	     47.51183073	     -8.78164546	      0.82923788	     16.91623125	     27.49579102	     -9.46293894	    -25.62636780	     10.97181642	      4.30018997	     -8.33464929	     -2.25215346	    -11.38826762	    105.29859696	     90.00000001	      0.00000000	      0.00000000	     -2.63229928	     -9.52328031	    -26.96544759	     45.97433164	     90.00000001	      0.00000000	      0.00000000
      0.53000000	      3.12945490	     -9.61945588	     -4.07485510	     -1.66631124	      0.83240377	      0.35641431	      6.17715337	      7.58481538	    -27.08453327	     21.29555384	     -2.86511962	      0.37167753	     16.70655128	     25.19719282	     -9.43802136	      0.75763287	    -17.47279844	    -17.41022175	     49.13619604	     -8.95391157	      0.85758840	     16.14758711	     27.33560438	     -9.43802136	    -26.08062320	     10.61050954	      4.39996343	     -8.58039954	     -2.45697051	    -11.61641064	    105.11118787	     90.00000001	      0.00000000	      0.00000000	     -2.42512034	     -9.45002660	    -26.92528932	     46.22614864	     90.00000001	      0.00000000	      0.00000000
      0.54000000	      2.77808412	     -9.60559418	     -3.93822999	     -1.66447984	      0.83199818	      0.35722345	      6.33534961	      7.64751116	    -27.01367207	     21.17176255	     -2.69894918	      0.36951696	     17.09276625	     25.22250368	     -9.39180672	      2.45319969	    -17.80256595	    -16.54893230	     51.12492303	     -8.97149197	      0.89229824	     14.55291441	     26.72110673	     -9.39180672	    -25.96893789	     10.74896121	      4.25831535	     -8.85227467	     -2.52402589	    -12.13011725	    105.06267326	     90.00000001	      0.00000000	      0.00000000	     -2.37337984	     -9.30843016	    -26.93575098	     46.64177778	     90.00000001	      0.00000000	      0.00000000
      0.55000000	      2.27080987	     -9.57275089	     -3.93867229	     -1.66304881	      0.83137958	      0.35825482	      6.87093907	      7.79511187	    -27.06676313	     21.27223188	     -2.92838493	      0.37127049	     17.18710631	     25.07104329	     -9.29513576	      4.29823883	    -18.21321918	    -15.32902292	     53.18033202	     -8.37368900	      0.92817189	     13.97967800	     25.16326899	     -9.29513576	    -25.74143251	     10.80968933	      4.19822044	     -9.00213141	     -2.68882830	    -12.31658519	    104.79907233	     90.00000001	      0.00000000	      0.00000000	     -2.22753439	     -9.20970445	    -26.94891390	     46.87000764	     90.00000001	      0.00000000	      0.00000000
      0.56000000	      2.29537656	     -9.36775814	     -3.94134099	     -1.66113034	      0.83158853	      0.35890260	      6.61559511	      7.55243162	    -26.90951355	     21.19926755	     -2.69504848	      0.36999702	     17.37563067	     24.99921738	     -9.26002866	      5.33788573	    -18.24729408	    -15.34741514	     54.51038571	     -8.64487052	      0.95138571	     13.46832983	     24.67088704	     -9.26002866	    -26.05851823	     10.66198834	      4.14785827	     -9.11037427	     -2.78917212	    -12.61054397	    104.73916810	     90.00000001	      0.00000000	      0.00000000	     -2.06269060	     -9.10851387	    -26.89962286	     47.16289251	     90.00000001	      0.00000000	      0.00000000
      0.57000000	      1.88216810	     -9.30210630	     -4.00175166	     -1.65966529	      0.83108806	      0.35975008	      7.00684442	      7.60924379	    -26.88918265	     21.26632967	     -2.83254599	      0.37116747	     17.55096757	     25.00578182	     -9.17932689	      7.02576914	    -18.59760811	    -15.03573393	     56.04574542	     -8.52145792	      0.97818279	     13.09093349	     23.38862579	     -9.17932689	    -25.93286886	     10.66369157	      4.15228459	     -9.16919773	     -2.90682854	    -12.81242150	    104.58260296	     90.00000001	      0.00000000	      0.00000000	     -1.94526352	     -9.00798475	    -26.85234583	     47.50749717	     90.00000001	      0.00000000	      0.00000000
      0.58000000	      2.00368837	     -9.03780279	     -4.08774340	     -1.65790004	      0.83150150	      0.36040926	      6.70978383	      7.30091515	    -26.81912024	     21.26817480	     -2.72197069	      0.37119968	     17.58067092	     24.89263960	     -9.16040916	      7.86157100	    -18.63050384	    -15.32998735	     56.92847280	     -8.61869502	      0.99358929	     13.04943034	     23.05365344	     -9.16040916	    -26.39037847	     10.37950947	      4.17773241	     -9.14982795	     -3.02512492	    -12.90214230	    104.43664973	     90.00000001	      0.00000000	      0.00000000	     -1.71855229	     -8.94884697	    -26.77179771	     47.69472647	     90.00000001	      0.00000000	      0.00000000
      0.59000000	      1.75823674	     -9.05642826	     -4.00900279	     -1.65629104	      0.83121393	      0.36073385	      6.77898541	      7.31676662	    -26.84256319	     21.16921731	     -2.55626485	      0.36947254	     17.82846548	     25.07640451	     -9.12871966	      9.37829421	    -18.98650633	    -16.00937015	     57.86143769	     -9.31116877	      1.00987260	     13.33338456	     21.94077895	     -9.12871966	    -26.43097487	     10.53200449	      4.10240435	     -9.12406767	     -3.09199941	    -13.20667164	    104.47361813	     90.00000001	      0.00000000	      0.00000000	     -1.58838401	     -8.79707393	    -26.70204087	     48.06090924	     90.00000001	      0.00000000	      0.00000000
      0.60000000	      1.30203662	     -8.95835469	     -4.05003260	     -1.65501469	      0.83060890	      0.36124451	      7.27884864	      7.26067713	    -27.01846253	     21.35358226	     -2.70074620	      0.37269032	     18.05922172	     25.33466817	     -9.02313825	     11.12398608	    -19.33632873	    -16.15333620	     58.78086735	     -9.22716507	      1.02591967	     13.71903810	     20.24282392	     -9.02313825	    -26.26842261	     10.51705646	      4.07994396	     -9.08436145	     -3.18862481	    -13.32813844	    104.37665720	     90.00000001	      0.00000000	      0.00000000	     -1.42997853	     -8.72294058	    -26.57554540	     48.28876473	     90.00000001	      0.00000000	      0.00000000
      0.61000000	      1.25493004	     -8.90877275	     -4.03372451	     -1.65343604	      0.83068568	      0.36153791	      7.14354219	      7.16638706	    -27.06482183	     21.28972514	     -2.55124400	      0.37157580	     18.12780814	     25.41833366	     -9.00053890	     12.28261374	    -19.63739897	    -17.07384854	     59.11463387	     -9.75104578	      1.03174500	     14.30744416	     19.57028941	     -9.00053890	    -26.55000609	     10.52545195	      4.04113700	     -8.94296898	     -3.22521011	    -13.48380715	    104.32190084	     90.00000001	      0.00000000	      0.00000000	     -1.24742070	     -8.65145074	    -26.49596920	     48.52428056	     90.00000001	      0.00000000	      0.00000000
